<?xml version="1.0" encoding="UTF-8"?><svg id="Layer_2" xmlns="http://www.w3.org/2000/svg" viewBox="0 0 144 143.84"><defs><style>.cls-1{fill:#6279b8;stroke-width:0px;}</style></defs><g id="Layer_1-2"><path class="cls-1" d="M119.55,33.43c.53-.25,1.05-.49,1.55-.72.5-.23,1.07-.5,1.73-.79l2.97-1.38c.67-.31,1.26-.59,1.78-.83.52-.24,1.05-.49,1.6-.74l-1.35,1.9-.92-1.22c-.33-.44-.63-.83-.88-1.17-.25-.34-.5-.66-.73-.97l2.52-1.18,5.52,7.35-2.53,1.17c-.23-.31-.47-.63-.72-.96-.25-.34-.54-.73-.88-1.17l-.92-1.22,2.76-.02c-.55.25-1.09.49-1.6.74-.52.24-1.11.52-1.78.83l-2.97,1.38c-.65.3-1.23.56-1.73.79-.5.23-1.01.47-1.55.72l-1.88-2.51Z"/><path class="cls-1" d="M125.53,41.82c.58-.13,1.13-.25,1.67-.36.53-.11,1.15-.25,1.86-.4l3.69-.79c.71-.15,1.35-.29,1.91-.41.56-.12,1.14-.25,1.75-.38l1.29,2.89c-.59.13-1.17.25-1.74.37-.56.12-1.2.26-1.91.41l-3.69.79c-.71.15-1.34.29-1.87.4-.53.12-1.09.23-1.66.35l-1.29-2.88ZM128.21,47.78c.57-.13,1.12-.25,1.66-.36s1.16-.25,1.87-.4l3.69-.79c.71-.15,1.35-.29,1.91-.41s1.14-.25,1.74-.38l1.29,2.89c-.6.13-1.18.25-1.74.37-.56.12-1.2.26-1.91.41l-3.7.8c-.7.15-1.32.28-1.85.4-.53.12-1.09.24-1.67.36l-1.29-2.88ZM130.66,43.06l2.6-.56,2.06,4.6-2.6.56-2.06-4.6Z"/><path class="cls-1" d="M130.99,55.1c.59,0,1.15,0,1.7.01.55,0,1.18,0,1.9,0l3.78.03c.73,0,1.39,0,1.96.01.57,0,1.16,0,1.78.01l1.51,7.32h-2.56c-.09-.44-.19-.91-.29-1.41-.1-.5-.23-1.09-.37-1.77l-.5-2.42,2.31,1.28c-.61,0-1.2,0-1.77,0-.57,0-1.22,0-1.95-.01h-2.77c-.7,0-1.33-.01-1.88-.01s-1.12,0-1.7,0l1.81-1.07.5,2.44c.12.56.23,1.1.33,1.6s.2.99.3,1.45h-2.57s-1.54-7.45-1.54-7.45ZM135.89,57.44h2.33s.39,1.88.39,1.88c.13.64.25,1.18.34,1.64.09.46.18.9.27,1.32h-2.33c-.09-.46-.19-.91-.28-1.36-.09-.45-.2-.99-.33-1.6l-.39-1.88Z"/><path class="cls-1" d="M133.1,76.01c.54.02,1.12.04,1.74.07.61.02,1.18.05,1.7.06l3.43.14c.39.01.82.03,1.28.05.46.02.92.04,1.4.05s.93.03,1.35.05l-.37,3.28c-.63-.06-1.31-.12-2.02-.19-.71-.07-1.39-.14-2.03-.2l-3.62-.37-.02.21,3.45,1.93c.62.34,1.25.7,1.91,1.06.66.37,1.3.73,1.93,1.08l-.41,3.57c-.41-.26-.83-.53-1.27-.82s-.87-.56-1.29-.84-.82-.54-1.2-.77l-3.2-2.08c-.5-.33-1.04-.68-1.62-1.06-.58-.38-1.12-.73-1.62-1.06l.48-4.18Z"/><path class="cls-1" d="M131.24,87.4c.51.28,1.01.56,1.49.82.48.27,1.03.57,1.66.92l3.31,1.83c.64.36,1.22.68,1.72.95s1.02.56,1.55.85l-.94,3.07c-.53-.29-1.05-.58-1.56-.86-.5-.28-1.08-.59-1.71-.95l-3.31-1.83c-.63-.35-1.18-.65-1.66-.92-.48-.26-.98-.54-1.49-.82l.94-3.07Z"/><path class="cls-1" d="M126.79,98.62c.25-.49.53-.96.85-1.42.32-.45.65-.85.98-1.18.33-.33.63-.58.88-.73l2.01,1.85c-.34.19-.67.41-.98.66-.31.26-.59.54-.85.84-.25.3-.47.63-.64.97-.12.24-.2.46-.24.65s-.03.37.02.52c.05.15.16.29.32.42.15.13.33.18.54.14.2-.04.43-.14.69-.32.26-.17.54-.4.86-.67.48-.43.96-.75,1.42-.98.46-.22.94-.3,1.42-.23.48.07.99.32,1.53.74.5.4.88.84,1.11,1.32s.32,1.03.26,1.63c-.06.61-.28,1.29-.67,2.05-.17.34-.37.68-.59,1.01-.22.33-.45.64-.7.93-.25.29-.49.54-.73.77-.24.23-.47.4-.69.53l-1.92-1.82c.33-.16.64-.37.94-.64s.56-.54.78-.81c.22-.27.38-.51.48-.7s.17-.39.21-.58c.04-.19.05-.36,0-.52-.04-.16-.13-.3-.28-.43-.15-.12-.32-.18-.5-.17s-.4.07-.64.21c-.24.14-.52.35-.84.63-.62.54-1.17.93-1.67,1.15-.49.22-.96.29-1.39.21-.44-.08-.88-.3-1.32-.65-.57-.45-.97-.93-1.21-1.43-.24-.51-.32-1.08-.23-1.72.09-.64.34-1.38.76-2.22Z"/><path class="cls-1" d="M122.94,105.84c.39.44.77.86,1.14,1.27s.79.88,1.27,1.41l2.53,2.81c.49.55.93,1.04,1.31,1.46s.78.86,1.18,1.32l-1.89,2.6c-.41-.45-.8-.89-1.19-1.32-.39-.43-.82-.91-1.31-1.46l-2.53-2.81c-.48-.53-.9-1-1.27-1.41-.37-.41-.75-.83-1.14-1.27l1.89-2.6Z"/><path class="cls-1" d="M113.59,116.42c.76-.71,1.52-1.19,2.29-1.44.77-.25,1.52-.3,2.24-.16.72.15,1.39.45,2,.92.61.47,1.13,1.06,1.57,1.79.54.89.87,1.8.99,2.71.12.91.01,1.8-.32,2.66-.33.86-.9,1.67-1.71,2.42-.73.68-1.48,1.15-2.25,1.4-.76.25-1.51.31-2.23.18-.72-.13-1.39-.43-2.01-.89-.62-.47-1.15-1.07-1.59-1.81-.52-.87-.85-1.76-.97-2.67s-.03-1.8.29-2.67c.32-.87.88-1.68,1.69-2.44ZM115.29,118.33c-.26.24-.46.51-.58.81-.13.3-.2.62-.2.96,0,.34.05.69.16,1.06.11.36.28.73.49,1.1.24.4.51.73.82,1,.31.27.63.47.98.59.34.12.68.15,1.02.09s.66-.24.96-.51c.27-.25.48-.54.61-.85.13-.31.2-.64.2-.99,0-.35-.05-.7-.16-1.07-.11-.37-.27-.73-.49-1.09-.24-.4-.52-.74-.84-1s-.65-.45-.99-.56c-.34-.11-.69-.12-1.03-.05-.34.07-.66.24-.95.52Z"/><path class="cls-1" d="M106.64,122.59c.17.56.34,1.11.5,1.63.16.52.35,1.13.55,1.81l1.11,3.62c.22.71.41,1.33.58,1.88.17.55.34,1.11.52,1.69l-2.4,1.33c-.57-.44-1.1-.86-1.61-1.26s-1-.78-1.48-1.16l-1.94-1.51-.19.11.67,2.18c.21.7.41,1.33.57,1.87.17.55.34,1.11.52,1.7l-2.57,1.43c-.18-.59-.35-1.15-.52-1.7s-.36-1.17-.57-1.87l-1.11-3.61c-.21-.69-.4-1.3-.56-1.82s-.33-1.07-.5-1.63l2.33-1.29c.5.37,1,.75,1.5,1.14.5.38,1.05.8,1.63,1.26l1.98,1.5.19-.1-.7-2.31c-.21-.7-.4-1.3-.56-1.82-.16-.52-.33-1.06-.5-1.63l2.57-1.42Z"/><path class="cls-1" d="M94.59,129.04c-.14.65-.28,1.33-.43,2.05-.15.71-.29,1.39-.43,2.04l-.85,4.11c-.14.71-.28,1.37-.41,1.96-.13.6-.26,1.21-.38,1.83l-3.87,1.09c-.21-.53-.41-1.04-.6-1.54-.2-.5-.41-1.06-.65-1.69l-1.37-3.54c-.21-.54-.43-1.11-.66-1.71-.23-.6-.46-1.17-.66-1.71l2.98-.84c.17.52.34,1.05.52,1.59.18.54.35,1.06.52,1.56l1.54,4.69.21-.06.8-5.32c.08-.58.17-1.19.27-1.81.1-.62.19-1.23.28-1.82l3.22-.9ZM91.86,131.89l-.17,2.46-4.33,1.21-.44-2.29,4.94-1.38Z"/><path class="cls-1" d="M80.3,132.65c-.1.58-.19,1.14-.28,1.68-.09.54-.19,1.16-.31,1.87l-.62,3.74c-.11.73-.22,1.37-.32,1.94-.1.56-.19,1.15-.29,1.75-.35.02-.76.04-1.24.06-.48.02-.99.05-1.54.07-.54.02-1.08.05-1.6.07-.93.04-1.69-.05-2.31-.29-.61-.24-1.05-.62-1.31-1.15-.26-.53-.33-1.22-.2-2.06.11-.66.33-1.2.65-1.64.32-.44.77-.77,1.35-1,.58-.23,1.3-.36,2.17-.4l-1.4,1.1-.99-2.16c-.15-.33-.31-.69-.49-1.07s-.34-.75-.51-1.11c-.17-.36-.31-.68-.44-.95l3.48-.16c.16.4.31.78.45,1.15s.29.73.43,1.09l1.13,2.93-1.66-1.26,2.67-.12-.33,2.04-1.75.08c-.27.01-.51.06-.71.14-.2.08-.36.21-.49.39-.13.18-.22.44-.28.78-.04.23-.04.43,0,.59s.12.29.22.39c.1.1.22.18.36.22.14.04.29.06.46.06l3.44-.16-2.56,2c.09-.59.19-1.17.29-1.74.1-.57.2-1.21.31-1.92l.54-3.23c.11-.72.22-1.35.31-1.88.09-.54.18-1.1.28-1.68l3.09-.14Z"/><path class="cls-1" d="M66.57,132.76c-.2.55-.38,1.09-.57,1.61-.18.52-.39,1.11-.63,1.79l-1.26,3.57c-.25.7-.47,1.31-.66,1.85s-.38,1.1-.59,1.67l-3.19-.41c.2-.57.4-1.13.59-1.68s.41-1.16.65-1.85l1.26-3.57c.24-.68.45-1.27.63-1.79.18-.52.37-1.05.57-1.61l3.18.41Z"/><path class="cls-1" d="M58.58,131.62c-.28.51-.56,1.01-.83,1.49-.26.48-.57,1.03-.92,1.67l-1.84,3.31c-.36.64-.67,1.21-.95,1.71s-.57,1.02-.86,1.56l-7.15-2.18,1.24-2.25c.42.13.88.27,1.37.42s1.07.33,1.73.53l2.36.72-2.24,1.41c.29-.53.57-1.05.85-1.55.28-.5.59-1.06.95-1.7l1.33-2.43c.34-.61.65-1.16.91-1.65.27-.49.54-.98.82-1.49l.07,2.1-2.38-.73c-.55-.17-1.07-.33-1.56-.48-.49-.15-.96-.29-1.42-.43l1.24-2.24,7.26,2.22ZM54.18,134.8l-1.12,2.04-1.84-.56c-.62-.19-1.16-.35-1.6-.49-.44-.14-.87-.27-1.29-.39l1.12-2.04c.44.13.88.27,1.32.4.44.13.96.29,1.57.48l1.84.56Z"/><path class="cls-1" d="M43.54,125.61c.48.26.95.56,1.39.9s.82.68,1.15,1.02c.32.34.55.65.7.91l-1.92,1.95c-.17-.35-.38-.68-.63-1s-.51-.61-.81-.87c-.3-.26-.61-.49-.95-.67-.24-.13-.45-.22-.65-.26s-.37-.05-.52,0c-.15.05-.29.15-.43.3-.14.15-.19.33-.16.53.03.2.13.44.29.7.16.26.38.56.64.88.41.5.72.98.92,1.45s.26.95.17,1.43c-.09.48-.35.98-.79,1.51-.42.49-.87.85-1.36,1.07s-1.04.29-1.64.2-1.28-.33-2.03-.74c-.34-.18-.66-.39-.99-.62-.32-.23-.62-.48-.9-.73s-.53-.51-.74-.76c-.22-.25-.39-.49-.51-.71l1.89-1.86c.15.34.35.66.61.96.26.31.52.58.78.81s.49.4.69.5c.2.11.39.18.58.23s.36.06.52.03c.16-.03.31-.12.44-.26.13-.15.19-.31.19-.5,0-.18-.06-.4-.19-.64-.13-.25-.33-.53-.6-.86-.52-.64-.89-1.21-1.09-1.71-.21-.5-.26-.97-.16-1.4.1-.43.33-.86.7-1.3.47-.55.96-.94,1.48-1.16s1.09-.28,1.73-.17c.64.11,1.37.39,2.2.84Z"/><path class="cls-1" d="M19.25,115.82l-3.84.32,3.31-1.9-2.86-2.51,3.68.97-.32-3.84,1.9,3.31,2.51-2.86-.97,3.68,3.84-.32-3.35,1.93,2.9,2.47-3.68-.98.32,3.84-1.93-3.35-2.47,2.9.98-3.68Z"/><path class="cls-1" d="M16.08,96.54c-.58.08-1.14.15-1.69.22s-1.17.15-1.89.25l-3.75.49c-.73.1-1.37.18-1.94.25-.57.07-1.15.15-1.76.23l-2.49-7.05,2.54-.34c.15.42.31.87.48,1.35s.37,1.05.61,1.71l.83,2.33-2.47-.96c.6-.08,1.18-.16,1.75-.24.56-.07,1.21-.16,1.93-.25l2.75-.37c.7-.09,1.32-.17,1.87-.25s1.11-.15,1.69-.23l-1.65,1.3-.83-2.34c-.19-.54-.37-1.06-.54-1.54-.17-.48-.34-.95-.49-1.4l2.54-.33,2.53,7.16ZM10.91,94.9l-2.31.31-.64-1.81c-.22-.61-.4-1.14-.56-1.58-.15-.44-.3-.86-.45-1.27l2.31-.31c.15.44.31.87.46,1.3s.34.95.55,1.54l.64,1.81Z"/><path class="cls-1" d="M12.3,85.32c-.59-.05-1.15-.1-1.7-.14-.55-.05-1.17-.1-1.88-.16l-3.78-.31c-.74-.06-1.39-.11-1.96-.16-.57-.05-1.16-.1-1.76-.15l-.35-2.73c.62-.36,1.21-.7,1.76-1.03.56-.32,1.1-.64,1.63-.94l2.13-1.24-.03-.22-2.27-.19c-.73-.06-1.38-.12-1.95-.16-.57-.05-1.16-.1-1.77-.15l-.37-2.91c.61.05,1.2.1,1.77.15.57.05,1.22.1,1.95.16l3.76.31c.72.06,1.35.11,1.9.15s1.11.09,1.7.14l.34,2.64c-.53.32-1.07.65-1.61.98s-1.13.68-1.77,1.05l-2.13,1.28.03.21,2.4.2c.73.06,1.36.11,1.9.16.54.04,1.11.09,1.7.14l.37,2.91Z"/><path class="cls-1" d="M10.86,71.07c-.56-.18-1.1-.36-1.62-.52-.52-.17-1.12-.36-1.8-.58l-3.61-1.16c-.7-.23-1.33-.43-1.87-.6-.54-.18-1.11-.36-1.68-.55.04-.37.08-.79.13-1.24s.1-.93.15-1.43.1-1,.15-1.51c.09-.85.31-1.57.68-2.16.37-.59.83-1.04,1.4-1.36.57-.32,1.21-.5,1.92-.54s1.46.06,2.24.3c.75.24,1.42.54,2,.91s1.08.84,1.46,1.39c.39.55.66,1.23.82,2.02.16.79.18,1.73.07,2.8-.06.55-.11,1.07-.16,1.56-.05.49-.1.95-.14,1.4-.05.44-.09.87-.13,1.28ZM8.76,67.15l.09-.84c.07-.65,0-1.2-.2-1.64-.2-.44-.5-.8-.9-1.08-.4-.28-.87-.51-1.41-.68-.41-.13-.8-.21-1.17-.22-.37,0-.7.05-1,.17-.3.12-.54.32-.73.58s-.3.61-.35,1.03l-.09.83c.29.09.57.18.85.28.28.09.62.2,1.01.33l2.08.67c.37.12.69.22.97.31.28.09.56.18.83.26Z"/><path class="cls-1" d="M14.89,51.34c-.35.98-.81,1.75-1.38,2.33-.57.58-1.21.96-1.92,1.16-.71.2-1.44.23-2.2.1s-1.5-.43-2.22-.87c-.89-.55-1.59-1.2-2.12-1.96-.52-.76-.83-1.59-.94-2.51-.1-.92.04-1.89.41-2.94.34-.94.79-1.7,1.36-2.27s1.2-.97,1.9-1.18c.7-.21,1.43-.26,2.2-.13.76.13,1.51.42,2.24.88.86.53,1.56,1.18,2.09,1.93s.85,1.59.97,2.51c.12.92-.01,1.9-.39,2.94ZM12.51,50.42c.12-.33.17-.66.15-.99-.02-.32-.11-.64-.26-.95-.15-.31-.36-.59-.62-.87-.27-.27-.58-.52-.94-.75-.39-.24-.79-.42-1.19-.52-.4-.1-.78-.13-1.14-.08s-.68.18-.95.39c-.27.21-.48.51-.62.9-.13.35-.18.69-.15,1.03.02.34.11.66.27.97s.37.6.63.88c.27.28.58.53.94.75.4.25.8.41,1.2.51.4.09.78.1,1.14.04.36-.06.67-.2.94-.42.27-.22.48-.52.61-.89Z"/><path class="cls-1" d="M18.28,42.68c-.42-.42-.81-.83-1.19-1.22-.38-.39-.82-.84-1.33-1.35l-2.65-2.71c-.52-.52-.98-.99-1.38-1.4-.4-.41-.81-.83-1.24-1.27.19-.29.42-.63.69-1.04.27-.4.55-.83.85-1.28.3-.45.6-.9.89-1.34.51-.77,1.04-1.34,1.6-1.69.55-.36,1.12-.49,1.7-.38s1.17.45,1.78,1.06c.46.48.78.98.94,1.49.16.52.16,1.08,0,1.68-.15.6-.47,1.26-.96,1.99l-.06-1.78,2.33.47c.36.07.74.15,1.15.24.41.09.81.17,1.2.25.39.08.74.15,1.03.2l-1.93,2.91c-.41-.11-.81-.21-1.19-.31-.38-.1-.76-.2-1.13-.29l-3.03-.82,2-.6-1.48,2.23-1.45-1.47.97-1.46c.15-.23.25-.45.31-.65s.05-.42-.02-.63c-.07-.21-.23-.44-.47-.68-.16-.17-.32-.28-.48-.34s-.31-.08-.45-.06c-.14.02-.27.07-.39.16-.12.09-.22.2-.32.34l-1.91,2.88-.11-3.25c.42.42.83.84,1.24,1.26.4.41.86.88,1.37,1.39l2.29,2.34c.51.52.96.97,1.34,1.36s.78.79,1.19,1.22l-1.71,2.58Z"/><path class="cls-1" d="M29.3,28.76c-.39.38-.82.74-1.27,1.06s-.89.59-1.31.79-.78.34-1.07.4l-1.3-2.4c.39-.06.77-.17,1.14-.31s.73-.31,1.07-.52c.34-.21.65-.44.92-.71.19-.19.34-.37.44-.54s.15-.34.15-.49c0-.16-.06-.32-.16-.5-.1-.18-.26-.28-.46-.31-.2-.03-.46,0-.76.07-.3.08-.64.2-1.03.36-.6.25-1.15.4-1.66.46s-.98-.03-1.42-.25c-.43-.22-.83-.62-1.21-1.2-.35-.54-.55-1.08-.62-1.61-.07-.53.03-1.08.29-1.63.26-.55.69-1.13,1.3-1.72.27-.27.57-.52.88-.76.32-.24.64-.45.97-.64s.64-.35.94-.49c.3-.13.58-.23.83-.28l1.22,2.35c-.36.04-.73.14-1.1.3-.37.15-.7.32-1,.51s-.53.36-.68.51c-.16.16-.29.32-.39.48-.1.17-.16.33-.18.49-.02.16.02.33.12.5.1.16.24.27.42.33.18.06.4.06.67.01.27-.05.6-.16,1-.32.76-.31,1.41-.49,1.95-.54.54-.05,1,.04,1.39.26s.73.57,1.03,1.05c.39.61.61,1.19.67,1.75.06.56-.06,1.13-.35,1.7-.29.58-.78,1.19-1.45,1.85Z"/><path class="cls-1" d="M35.11,23.19c-.21-.55-.41-1.08-.61-1.59s-.42-1.1-.69-1.77l-1.35-3.53c-.26-.68-.5-1.29-.7-1.83-.2-.53-.42-1.09-.64-1.66l6.27-4.08.93,2.39c-.37.24-.77.5-1.2.78-.43.28-.94.61-1.52.99l-2.07,1.35.35-2.62c.22.57.44,1.11.64,1.65s.44,1.14.7,1.82l1.01,2.58c.25.66.48,1.24.68,1.76.2.51.41,1.04.62,1.59l-1.66-1.3,2.08-1.36c.48-.31.94-.61,1.37-.89.43-.28.84-.55,1.24-.81l.92,2.39-6.36,4.14ZM35.5,17.78l-.85-2.17,1.61-1.05c.55-.36,1.01-.66,1.4-.91.39-.25.77-.5,1.13-.74l.85,2.17c-.39.25-.77.5-1.16.75-.39.25-.84.55-1.37.89l-1.61,1.05Z"/><path class="cls-1" d="M45.17,16.88c-.09-.58-.18-1.14-.26-1.68-.09-.54-.18-1.16-.29-1.87l-.59-3.74c-.12-.73-.22-1.38-.31-1.94-.09-.56-.18-1.15-.27-1.75.35-.13.74-.28,1.16-.45s.87-.33,1.35-.52c.47-.18.94-.36,1.41-.54.8-.31,1.54-.43,2.23-.37.69.06,1.31.27,1.85.64s.99.86,1.35,1.47c.36.62.6,1.33.74,2.13.13.77.16,1.51.09,2.2s-.26,1.34-.58,1.93c-.32.6-.8,1.14-1.43,1.64-.64.5-1.46.94-2.47,1.32-.52.2-1.01.38-1.46.56-.46.18-.9.34-1.31.5-.42.16-.82.31-1.2.46ZM47.73,13.24l.79-.3c.61-.24,1.07-.54,1.37-.92.3-.38.49-.81.56-1.29.07-.48.06-1-.03-1.56-.07-.43-.18-.81-.34-1.14s-.36-.61-.6-.82-.53-.34-.85-.39-.68,0-1.08.16l-.78.3c.05.3.09.59.14.89.04.29.1.64.16,1.05l.34,2.16c.06.38.12.71.17,1.01s.09.58.14.86Z"/><path class="cls-1" d="M69.35,10.95c-.61.02-1.2.04-1.75.06-.55.02-1.05.04-1.51.05-.46.02-.87.03-1.24.04.1-.58.2-1.14.3-1.67.09-.54.2-1.16.33-1.88l.66-3.74c.12-.71.23-1.34.34-1.91.1-.57.21-1.15.31-1.76.58-.02,1.25-.04,1.98-.07.74-.03,1.48-.05,2.23-.08.89-.03,1.61.02,2.17.17.55.14.97.35,1.25.62.28.27.46.57.53.92.08.34.08.7.02,1.07-.08.47-.24.84-.46,1.12s-.49.5-.82.65-.68.28-1.08.38l-.05.22c.4.1.74.27,1.04.51.3.24.51.56.65.94.13.38.16.83.07,1.35-.08.46-.21.86-.4,1.22-.19.36-.46.67-.82.93s-.85.46-1.46.6c-.61.14-1.37.23-2.29.26ZM68.35,8.76l1.3-.05c.29,0,.54-.06.74-.14.2-.08.37-.2.49-.36.12-.16.21-.36.25-.61.06-.36,0-.65-.19-.85s-.5-.3-.93-.28l-2.02.07.34-2.04,1.92-.07c.27,0,.5-.06.7-.15s.36-.22.48-.38c.12-.16.2-.36.24-.6.06-.35.01-.62-.16-.83-.17-.2-.44-.3-.8-.28l-1.22.04c-.05.32-.1.65-.17.98-.06.33-.13.72-.21,1.16l-.41,2.38c-.07.42-.14.79-.19,1.1-.06.31-.11.6-.16.89Z"/><path class="cls-1" d="M80.73,11.45c.22-.54.43-1.06.64-1.57.21-.51.45-1.09.71-1.75l1.06-2.59,3.11.56-1.06,2.59c-.27.66-.51,1.25-.72,1.75s-.42,1.03-.64,1.57l-3.11-.56ZM82.37,8.08l-.52-4.57c-.05-.5-.11-.98-.16-1.42-.05-.45-.11-.96-.18-1.55l3.27.59c0,.39,0,.72-.01,1s-.01.55-.02.8,0,.53-.01.84l-.02,1.45.2.04.99-1.23c.23-.28.43-.54.62-.77s.38-.47.57-.72c.19-.25.43-.53.7-.85l3.65.66c-.42.41-.83.82-1.25,1.24-.42.42-.84.82-1.24,1.21l-3.87,3.79-2.71-.49Z"/><path class="cls-1" d="M107.73,13.13l3.52-1.56-2.51,2.87,3.52,1.44-3.79.28,1.56,3.52-2.87-2.51-1.44,3.52-.28-3.79-3.52,1.56,2.54-2.92-3.55-1.39,3.79-.28-1.56-3.52,2.92,2.54,1.39-3.55.28,3.79Z"/></g></svg>