<?xml version="1.0" encoding="UTF-8"?><svg id="Layer_2" shape-rendering="geometricPrecision" xmlns="http://www.w3.org/2000/svg" viewBox="0 0 144 143.91"><defs><style>.cls-1{fill:#6279b8;stroke-width:0px;}</style></defs><g id="Layer_1-2"><path class="cls-1" d="M113.86,26.72c.65-.16,1.33-.33,2.04-.51.71-.18,1.39-.35,2.03-.51l4.09-1.04c.71-.18,1.36-.35,1.95-.49s1.2-.3,1.82-.46l2.68,3.02c-.39.42-.76.82-1.13,1.22-.36.4-.78.84-1.24,1.33l-2.6,2.8c-.39.43-.81.87-1.25,1.35s-.86.92-1.25,1.35l-2.06-2.33c.39-.38.8-.77,1.21-1.17.41-.4.81-.78,1.18-1.15l3.56-3.45-.15-.17-5.15,1.61c-.56.18-1.14.37-1.75.55-.61.19-1.19.37-1.77.55l-2.23-2.51ZM117.64,27.93l2.3-.93,2.99,3.37-1.88,1.4-3.41-3.85Z"/><path class="cls-1" d="M127.58,45.42c.59-.09,1.15-.18,1.69-.27.54-.08,1.17-.18,1.88-.3l3.75-.59c.73-.12,1.38-.22,1.95-.31s1.15-.18,1.75-.27c.16.41.37.98.65,1.71.28.73.6,1.58.97,2.53.33.86.47,1.61.42,2.25-.05.64-.31,1.16-.78,1.57s-1.17.69-2.1.85c-.76.12-1.43.11-2.03-.04s-1.12-.45-1.57-.92c-.45-.47-.84-1.13-1.17-1.98-.09-.24-.19-.5-.29-.77-.1-.27-.21-.54-.31-.81-.1-.26-.19-.49-.26-.68l2.3-.37.59,1.53c.11.3.25.52.39.69.15.16.33.27.54.32.21.05.47.05.78,0,.25-.04.45-.1.61-.2.16-.1.27-.21.35-.34.08-.13.12-.27.12-.42,0-.15-.02-.31-.08-.46l-.99-2.58,2.45,1.09c-.6.09-1.19.19-1.76.27s-1.22.19-1.94.32l-3.25.51c-.71.11-1.33.21-1.86.3-.54.09-1.1.17-1.69.26l-1.11-2.89Z"/><path class="cls-1" d="M132.2,58.73c.59.05,1.16.09,1.7.14.54.04,1.17.1,1.89.15l3.79.31c.74.05,1.39.1,1.96.15.57.05,1.16.1,1.78.15.04.34.1.76.16,1.24.06.48.13.99.2,1.53.07.54.14,1.07.21,1.6.12.92.09,1.7-.1,2.33s-.53,1.1-1.04,1.41c-.51.31-1.19.43-2.04.37-.67-.06-1.23-.23-1.69-.52s-.83-.71-1.11-1.27-.47-1.27-.58-2.14l1.21,1.31-2.08,1.17c-.32.18-.66.37-1.03.57-.37.2-.72.4-1.07.6-.35.2-.65.37-.92.52l-.45-3.47c.39-.19.76-.37,1.11-.55.35-.18.7-.35,1.05-.52l2.84-1.37-1.12,1.77-.35-2.66,2.07.16.23,1.75c.04.27.1.51.2.7s.24.35.43.46.46.18.8.21c.23.02.43,0,.59-.06.16-.06.28-.14.38-.25.09-.11.16-.23.19-.38.03-.14.04-.3.02-.47l-.45-3.43,2.22,2.39c-.6-.05-1.19-.09-1.76-.14s-1.23-.1-1.95-.16l-3.28-.27c-.73-.05-1.36-.1-1.91-.15s-1.11-.09-1.7-.14l-.4-3.08Z"/><path class="cls-1" d="M132.75,79.28c.12-1.03.4-1.9.83-2.59.43-.69.97-1.21,1.62-1.57.65-.36,1.36-.55,2.13-.59.77-.04,1.56.08,2.36.35.99.33,1.83.81,2.51,1.44.68.62,1.17,1.37,1.48,2.24.31.87.39,1.86.26,2.97-.12,1-.39,1.84-.82,2.53-.43.69-.96,1.21-1.59,1.58-.64.37-1.34.57-2.12.62-.78.04-1.58-.07-2.39-.36-.96-.33-1.79-.8-2.47-1.42-.69-.62-1.19-1.36-1.51-2.24-.32-.87-.42-1.86-.28-2.96ZM135.29,79.64c-.04.35-.02.69.08,1s.25.6.47.87c.21.27.48.5.8.71s.69.38,1.09.52c.44.15.87.23,1.28.24.41,0,.79-.05,1.13-.18.34-.13.62-.33.84-.6.22-.27.35-.61.4-1.02.04-.37.02-.72-.08-1.04s-.26-.62-.48-.89-.5-.51-.82-.72-.69-.38-1.09-.52c-.44-.15-.87-.23-1.29-.22s-.79.07-1.12.22c-.33.14-.61.35-.82.63-.22.27-.35.61-.4,1.01Z"/><path class="cls-1" d="M130.27,91.6c.52.16,1.08.33,1.67.51.59.18,1.13.35,1.63.5l3.29,1.03c.38.11.79.24,1.23.38.44.14.89.27,1.34.41.46.14.89.27,1.3.4l-1.21,3.09c-.6-.22-1.24-.46-1.91-.71-.67-.25-1.31-.5-1.92-.72l-3.42-1.29-.08.2,2.85,2.76c.51.49,1.04,1,1.58,1.52.54.53,1.07,1.04,1.6,1.55l-1.32,3.36c-.33-.36-.67-.73-1.02-1.12-.35-.39-.7-.77-1.03-1.15-.34-.38-.66-.73-.97-1.06l-2.56-2.84c-.4-.45-.83-.93-1.29-1.44s-.9-.99-1.3-1.44l1.54-3.93Z"/><path class="cls-1" d="M125.1,103.14c.4.43.79.84,1.17,1.24.38.4.81.86,1.31,1.39l2.6,2.77c.5.54.95,1.01,1.35,1.43.39.42.8.85,1.22,1.3l-4.27,6.17-1.77-1.87c.25-.36.53-.76.82-1.18s.64-.92,1.04-1.49l1.41-2.04.67,2.57c-.42-.44-.83-.87-1.22-1.29s-.84-.89-1.34-1.42l-1.92-2.02c-.48-.51-.91-.97-1.3-1.37-.38-.4-.77-.82-1.17-1.24l2.03.58-1.42,2.05c-.33.47-.64.92-.93,1.35s-.58.83-.85,1.22l-1.76-1.88,4.34-6.26ZM126.79,108.32l1.61,1.69-1.1,1.59c-.37.54-.69,1-.96,1.38s-.52.75-.77,1.11l-1.61-1.69c.26-.38.53-.76.79-1.14s.57-.83.94-1.35l1.1-1.59Z"/><path class="cls-1" d="M117.38,113.68c.3.51.58,1,.86,1.48s.59,1.02.95,1.64l1.91,3.29c.37.64.7,1.21.99,1.71s.58,1.01.89,1.54l-2.05,1.85c-.65-.3-1.27-.59-1.86-.86-.59-.27-1.16-.54-1.71-.8l-2.24-1.04-.16.15,1.15,1.98c.37.64.7,1.2.98,1.7.29.5.59,1.01.89,1.54l-2.19,1.98c-.31-.53-.61-1.05-.89-1.55-.29-.5-.61-1.06-.98-1.7l-1.9-3.28c-.37-.63-.68-1.18-.96-1.65-.27-.48-.56-.97-.86-1.48l1.98-1.79c.57.25,1.15.51,1.73.77.58.26,1.21.55,1.88.86l2.27,1.02.16-.14-1.21-2.1c-.37-.63-.68-1.18-.96-1.65s-.56-.96-.86-1.48l2.19-1.98Z"/><path class="cls-1" d="M99.14,127.23c.1.59.19,1.15.28,1.69s.19,1.16.31,1.88l.61,3.75c.12.73.23,1.38.32,1.95.09.57.19,1.15.29,1.75-.4.16-.97.38-1.7.67-.73.29-1.57.62-2.52.99-.86.34-1.61.48-2.25.43-.64-.05-1.17-.3-1.58-.77-.41-.47-.7-1.16-.86-2.09-.13-.76-.12-1.43.02-2.03.14-.6.45-1.13.91-1.58.47-.46,1.12-.85,1.97-1.18.24-.09.49-.19.77-.3s.54-.21.81-.32c.26-.1.49-.19.68-.27l.38,2.3-1.53.6c-.29.12-.52.25-.68.4-.16.15-.26.33-.31.55s-.05.47,0,.78c.04.25.1.45.2.61.1.16.21.27.35.35.13.07.27.11.42.12s.31-.02.46-.09l2.57-1.01-1.07,2.46c-.1-.6-.2-1.19-.29-1.75s-.2-1.21-.33-1.94l-.53-3.25c-.12-.71-.22-1.33-.31-1.86-.09-.54-.18-1.1-.28-1.69l2.88-1.13Z"/><path class="cls-1" d="M85.88,131.94c-.04.59-.08,1.16-.12,1.71-.04.54-.09,1.18-.14,1.89l-.28,3.79c-.05.74-.09,1.39-.14,1.96-.04.57-.09,1.16-.13,1.78-.34.05-.76.1-1.24.17-.48.07-.99.14-1.53.21-.54.07-1.07.15-1.6.22-.92.13-1.7.1-2.33-.08s-1.11-.52-1.42-1.03-.44-1.18-.39-2.04c.05-.67.22-1.23.5-1.7s.7-.84,1.26-1.12c.56-.28,1.27-.48,2.13-.59l-1.3,1.22-1.19-2.07c-.18-.32-.38-.66-.58-1.03-.21-.36-.41-.72-.61-1.06-.2-.35-.38-.65-.53-.91l3.47-.48c.19.39.38.75.55,1.11.18.35.35.7.53,1.05l1.4,2.83-1.78-1.11,2.65-.37-.15,2.07-1.74.24c-.27.04-.51.1-.7.2-.19.1-.34.24-.46.43-.11.19-.18.46-.21.8-.02.24,0,.43.06.59.06.16.14.28.25.38.11.09.23.16.38.19.14.03.3.04.47.01l3.43-.47-2.37,2.24c.04-.6.08-1.19.13-1.76s.09-1.23.14-1.95l.24-3.28c.05-.73.09-1.36.13-1.91.04-.54.08-1.11.12-1.71l3.07-.42Z"/><path class="cls-1" d="M65.33,132.65c1.03.12,1.9.39,2.59.81.69.42,1.22.96,1.58,1.6.36.65.56,1.35.61,2.13.04.77-.07,1.56-.33,2.37-.33,1-.8,1.84-1.42,2.52s-1.36,1.18-2.23,1.5c-.87.31-1.86.41-2.96.28-1-.11-1.84-.38-2.53-.8-.69-.42-1.22-.95-1.6-1.58-.37-.63-.58-1.34-.64-2.11-.05-.78.06-1.58.34-2.4.32-.97.79-1.79,1.4-2.49s1.35-1.2,2.23-1.53c.87-.33,1.86-.43,2.96-.31ZM64.99,135.19c-.36-.04-.69-.01-1,.09-.31.1-.6.26-.86.47-.26.22-.5.49-.7.81-.2.32-.37.69-.51,1.09-.15.44-.22.87-.23,1.28,0,.41.06.79.19,1.13.13.34.33.62.6.84.27.22.61.35,1.02.4.37.04.72.01,1.04-.09.33-.1.62-.27.88-.49.26-.22.5-.5.71-.82.21-.33.38-.69.51-1.09.15-.45.22-.87.22-1.29,0-.41-.08-.79-.23-1.12-.14-.33-.36-.61-.63-.82s-.61-.34-1.02-.39Z"/><path class="cls-1" d="M54.92,130.95c-.32.5-.62.99-.92,1.45-.29.46-.63,1-1.02,1.61l-2.03,3.21c-.39.62-.74,1.17-1.05,1.65-.31.48-.63.99-.96,1.51l-6.94-2.58,1.42-2.26c.42.16.87.32,1.35.5.48.18,1.05.39,1.7.63l2.2.82-2.33,1.38c.32-.51.64-1,.95-1.5s.66-1.05,1.06-1.67l1.76-2.78c.38-.61.72-1.14,1.01-1.61.3-.47.6-.95.91-1.44l2.89,1.07ZM50.56,133.65l-1.36,2.16-1.79-.66c-.61-.23-1.13-.42-1.56-.58-.44-.16-.86-.32-1.26-.47l1.36-2.16c.43.16.86.32,1.3.48.44.16.95.35,1.54.57l1.78.66Z"/><path class="cls-1" d="M43.03,126.08c-.41.42-.81.82-1.2,1.21s-.83.84-1.34,1.36l-2.67,2.7c-.52.52-.98.99-1.38,1.4s-.82.83-1.25,1.27l-6.32-4.04,1.8-1.84c.37.24.78.5,1.21.77.43.28.94.6,1.53.98l2.09,1.34-2.54.77c.42-.44.84-.86,1.24-1.27.4-.41.86-.87,1.37-1.39l1.94-1.99c.5-.5.94-.95,1.32-1.35.39-.4.79-.8,1.2-1.22l-.5,2.05-2.1-1.34c-.49-.31-.95-.6-1.38-.88s-.85-.54-1.25-.8l1.81-1.83,6.42,4.1ZM37.92,127.97l-1.63,1.67-1.63-1.04c-.55-.35-1.02-.65-1.42-.9s-.77-.49-1.14-.73l1.63-1.67c.39.25.78.5,1.17.75.39.25.85.54,1.38.88l1.63,1.04Z"/><path class="cls-1" d="M29.27,115.42c.39.39.75.81,1.08,1.26.33.45.6.89.81,1.31.21.42.35.78.41,1.07l-2.4,1.32c-.07-.39-.17-.77-.32-1.14-.14-.38-.32-.73-.53-1.07-.21-.34-.45-.65-.72-.92-.19-.19-.37-.34-.55-.44s-.34-.15-.5-.15c-.16,0-.32.06-.5.17-.18.1-.28.26-.31.47-.03.21,0,.46.08.76.08.3.2.64.37,1.03.26.6.41,1.15.47,1.66.06.51-.02.99-.24,1.42-.22.44-.62.84-1.19,1.22-.54.35-1.08.56-1.61.64-.53.07-1.08-.02-1.63-.27-.56-.25-1.14-.68-1.74-1.29-.27-.27-.53-.56-.77-.88-.24-.32-.46-.64-.66-.96-.2-.32-.36-.64-.5-.94s-.23-.58-.29-.83l2.35-1.25c.05.36.15.73.31,1.1.16.37.33.7.52,1,.19.3.36.52.52.68s.32.29.49.39c.17.1.33.16.5.18.16.02.33-.03.5-.13.16-.1.27-.25.32-.42s.06-.4,0-.67c-.05-.27-.16-.61-.33-1-.32-.76-.51-1.41-.56-1.95-.05-.54.03-1.01.25-1.39s.57-.74,1.04-1.05c.61-.4,1.19-.63,1.75-.69.56-.07,1.13.05,1.71.33.58.29,1.2.77,1.87,1.44Z"/><path class="cls-1" d="M20.85,105.06c.3.47.55.95.78,1.47.22.51.39,1,.51,1.46.12.46.17.84.17,1.14l-2.63.77c.02-.39,0-.79-.06-1.18-.06-.4-.15-.79-.28-1.16-.13-.38-.3-.73-.5-1.05-.14-.23-.29-.41-.44-.55-.15-.14-.3-.22-.45-.25s-.33-.01-.52.06c-.19.06-.33.19-.4.39s-.1.45-.09.76c.02.31.06.67.14,1.08.12.64.15,1.21.1,1.73s-.23.96-.54,1.34c-.31.38-.79.69-1.43.94-.61.23-1.18.32-1.71.27-.54-.05-1.05-.25-1.54-.62-.49-.37-.96-.91-1.42-1.64-.21-.32-.39-.66-.56-1.03-.17-.36-.31-.72-.43-1.08-.12-.36-.21-.7-.28-1.03-.07-.33-.1-.62-.1-.87l2.56-.71c-.03.37-.01.75.06,1.14s.17.76.29,1.09c.12.33.24.59.36.78.12.19.25.35.39.49.14.13.29.23.45.28s.33.05.51-.02c.18-.07.32-.18.41-.34.09-.16.14-.38.15-.66s-.03-.63-.11-1.05c-.15-.81-.19-1.49-.12-2.03.06-.54.25-.98.54-1.31.3-.33.71-.6,1.25-.8.68-.26,1.3-.35,1.86-.3.56.06,1.1.29,1.6.7.5.41,1.01,1.01,1.52,1.81Z"/><path class="cls-1" d="M16.14,96.93c-.58.1-1.14.2-1.69.29-.54.09-1.17.2-1.88.32l-3.74.64c-.73.12-1.38.23-1.95.33s-1.15.2-1.75.3l-1.19-2.99c.6-.1,1.19-.2,1.76-.3.57-.1,1.22-.21,1.94-.33l3.74-.64c.71-.12,1.34-.23,1.88-.32.54-.09,1.1-.19,1.69-.29l1.19,2.99Z"/><path class="cls-1" d="M11.97,82.18c.17,1.03.15,1.93-.07,2.72-.22.78-.59,1.44-1.11,1.96s-1.15.91-1.88,1.17c-.73.25-1.52.36-2.37.33-1.05-.04-1.98-.27-2.81-.67-.83-.41-1.51-.98-2.05-1.73s-.9-1.68-1.08-2.77c-.16-.99-.14-1.88.07-2.66s.57-1.43,1.08-1.97c.51-.53,1.13-.93,1.86-1.19s1.53-.37,2.4-.33c1.02.04,1.94.26,2.77.66s1.53.97,2.08,1.72c.55.75.92,1.67,1.1,2.76ZM9.43,82.55c-.06-.35-.18-.67-.36-.94-.18-.27-.41-.51-.69-.7-.28-.19-.6-.34-.97-.45-.37-.11-.76-.17-1.19-.19-.46-.02-.9.02-1.29.13s-.74.27-1.04.49-.51.49-.64.81c-.14.32-.17.68-.1,1.09.06.37.19.69.37.98.19.28.42.52.71.72s.62.34.99.46c.37.11.77.18,1.19.19.47.02.9-.03,1.3-.15.4-.12.74-.29,1.02-.52s.48-.51.61-.83c.13-.32.16-.69.1-1.08Z"/><path class="cls-1" d="M10.65,71.76c-.56-.18-1.11-.35-1.63-.51s-1.13-.35-1.81-.57l-3.63-1.14c-.71-.22-1.33-.42-1.88-.59-.55-.17-1.11-.35-1.69-.53l.26-2.74c.69-.22,1.34-.42,1.95-.62.62-.2,1.22-.38,1.8-.56l2.36-.75.02-.22-2.18-.68c-.7-.22-1.33-.42-1.87-.59-.55-.17-1.11-.35-1.7-.53l.28-2.93c.59.18,1.16.36,1.7.53.55.17,1.17.37,1.87.59l3.62,1.14c.69.21,1.3.4,1.82.57s1.07.34,1.64.51l-.25,2.66c-.59.2-1.19.4-1.8.6-.6.2-1.26.41-1.97.64l-2.37.78-.02.21,2.31.73c.7.22,1.3.41,1.82.57s1.06.33,1.64.51l-.28,2.93Z"/><path class="cls-1" d="M12.43,57c-.45-.49-.93-1.01-1.42-1.54-.5-.54-.97-1.05-1.42-1.54l-2.86-3.1c-.5-.53-.95-1.03-1.37-1.48-.41-.45-.84-.91-1.27-1.38l1.37-3.79c.55.14,1.09.28,1.61.41.52.13,1.11.28,1.76.45l3.7.95c.56.14,1.16.29,1.78.45s1.22.31,1.78.45l-1.06,2.92c-.52-.17-1.06-.34-1.6-.51-.55-.17-1.07-.33-1.58-.49l-4.73-1.48-.08.21,3.88,3.76c.43.4.87.83,1.32,1.27.45.44.89.87,1.32,1.29l-1.14,3.15ZM11.69,53.1l-1.91-1.58,1.53-4.24,2.13.98-1.75,4.84Z"/><path class="cls-1" d="M18.45,42.19c-.42-.42-.82-.82-1.21-1.21-.39-.39-.84-.84-1.34-1.35l-2.68-2.69c-.52-.53-.98-1-1.39-1.4-.41-.41-.82-.82-1.25-1.26l1.74-2.66c.44.44.86.86,1.26,1.27s.86.87,1.38,1.39l2.3,2.32c.5.5.94.95,1.33,1.34.39.39.79.8,1.22,1.22l-2.18-.72,1.21-1.85c.27-.41.51-.78.72-1.1.21-.32.4-.61.58-.88.18-.27.36-.55.54-.83l1.97,1.98-4.2,6.42Z"/><path class="cls-1" d="M35.85,22.94c-.78.59-1.55.96-2.31,1.12-.77.16-1.49.13-2.19-.08-.7-.21-1.33-.59-1.89-1.12-.57-.53-1.04-1.2-1.42-2-.47-1.01-.72-1.97-.73-2.89-.01-.92.22-1.8.68-2.63.47-.83,1.19-1.62,2.16-2.35.26-.19.53-.38.83-.55s.61-.33.92-.47.63-.26.94-.36c.31-.1.61-.17.89-.2l1.05,2.76c-.42.03-.8.08-1.16.15-.36.07-.7.18-1.01.31-.31.13-.61.3-.89.52-.39.3-.71.65-.95,1.05-.24.4-.36.86-.37,1.37,0,.51.13,1.08.42,1.71.18.39.42.73.69,1.02.28.3.59.52.94.66.35.14.72.19,1.12.13.4-.05.8-.24,1.22-.55.17-.13.33-.28.5-.46.17-.18.33-.38.48-.59s.3-.46.43-.71c.14-.26.26-.53.38-.84l1.43,2.68c-.11.2-.25.4-.41.62-.16.21-.34.43-.53.63s-.4.4-.61.59-.41.35-.61.5Z"/><path class="cls-1" d="M42.76,17.96c-.12-.58-.23-1.14-.34-1.68-.11-.54-.23-1.16-.38-1.87l-.74-3.72c-.14-.72-.27-1.36-.38-1.92-.11-.56-.23-1.15-.35-1.76l2.92-1.26c.12.6.24,1.18.35,1.75.11.57.24,1.21.38,1.93l.74,3.72c.14.72.27,1.34.38,1.88.11.54.22,1.1.33,1.68l-2.91,1.25ZM44.08,12.84l-.52-2.62,4.65-2,.52,2.62-4.65,2ZM48.78,15.36c-.12-.57-.23-1.13-.34-1.67-.11-.54-.23-1.17-.38-1.88l-.74-3.72c-.14-.72-.27-1.36-.38-1.92s-.23-1.15-.35-1.75l2.92-1.26c.12.6.24,1.19.35,1.75.11.56.24,1.21.38,1.93l.74,3.72c.14.71.26,1.33.37,1.87s.22,1.1.33,1.68l-2.91,1.25Z"/><path class="cls-1" d="M63.36,11.6c-1.03.15-1.93.1-2.71-.13-.78-.23-1.42-.62-1.94-1.15-.51-.53-.89-1.17-1.12-1.9-.24-.73-.33-1.53-.27-2.37.07-1.05.31-1.98.74-2.8.42-.82,1.02-1.49,1.78-2.01.76-.52,1.7-.86,2.8-1.02,1-.14,1.88-.1,2.65.14s1.42.61,1.94,1.13c.52.52.9,1.15,1.15,1.89s.34,1.54.27,2.4c-.07,1.01-.31,1.93-.73,2.76-.42.82-1.01,1.5-1.77,2.04-.76.54-1.69.88-2.79,1.04ZM63.06,9.06c.35-.05.67-.16.95-.34s.52-.4.72-.67c.2-.28.36-.6.47-.96.12-.36.19-.76.22-1.19.03-.46,0-.9-.1-1.3-.1-.4-.25-.75-.47-1.05-.21-.3-.48-.52-.79-.66s-.68-.19-1.09-.13c-.37.05-.7.17-.99.35-.29.18-.53.41-.73.7-.2.28-.36.61-.48.98-.12.37-.19.76-.22,1.18-.03.47,0,.9.12,1.3.11.4.27.74.5,1.03.22.29.5.5.82.63.32.14.68.18,1.08.12Z"/><path class="cls-1" d="M74,10.73c.16-.57.32-1.12.47-1.64s.32-1.14.52-1.83l1.04-3.65c.21-.71.39-1.34.54-1.9.16-.55.32-1.12.49-1.71l3.22.22c-.17.59-.33,1.16-.49,1.72-.16.56-.34,1.19-.54,1.89l-1.04,3.65c-.2.69-.37,1.3-.52,1.83-.15.53-.31,1.08-.47,1.64l-3.22-.22Z"/><path class="cls-1" d="M88.92,13.3c-.94-.26-1.71-.64-2.3-1.15-.59-.51-1.01-1.11-1.27-1.79-.26-.68-.34-1.41-.27-2.18.08-.78.32-1.56.72-2.35.51-.99,1.12-1.77,1.84-2.34.72-.57,1.56-.92,2.5-1.06.94-.14,2-.04,3.18.28.31.08.63.19.95.32.32.13.63.28.94.44.3.17.59.34.86.53.27.18.5.38.7.58l-1.54,2.51c-.27-.31-.55-.59-.83-.83-.28-.24-.57-.44-.86-.61s-.61-.3-.95-.39c-.48-.13-.95-.17-1.41-.11-.46.06-.9.24-1.32.55s-.78.76-1.09,1.38c-.19.38-.32.77-.39,1.17s-.05.78.05,1.14c.1.36.29.68.57.97s.68.49,1.18.63c.2.05.42.09.67.12s.5.03.76.02.54-.04.83-.09.58-.12.89-.21l-1.26,2.77c-.22.03-.47.04-.74.05-.27,0-.54,0-.83-.04-.28-.03-.56-.07-.84-.12-.27-.05-.53-.11-.77-.18Z"/><path class="cls-1" d="M97.08,15.85c.38-.45.75-.88,1.1-1.3.35-.42.76-.9,1.23-1.46l2.46-2.9c.48-.56.9-1.06,1.27-1.5.37-.44.75-.89,1.15-1.36l6.61,3.55-1.66,1.97c-.39-.21-.81-.44-1.26-.68s-.99-.53-1.6-.86l-2.18-1.17,2.48-.96c-.39.47-.77.92-1.14,1.36-.37.44-.79.93-1.26,1.49l-1.79,2.13c-.46.54-.86,1.02-1.22,1.44-.36.43-.72.86-1.1,1.31l.34-2.08,2.2,1.18c.51.27.99.53,1.44.77s.89.48,1.31.7l-1.66,1.97-6.71-3.6ZM102.03,13.58l1.5-1.79,1.7.91c.58.31,1.07.57,1.48.8.41.22.81.43,1.19.64l-1.5,1.79c-.41-.22-.82-.44-1.22-.66-.41-.22-.89-.48-1.45-.78l-1.7-.91Z"/></g></svg>